<svg width="12" height="12" viewBox="0 0 12 12" fill="none" xmlns="http://www.w3.org/2000/svg">
<g id="fi_3033143" clip-path="url(#clip0_1_188)">
<g id="Layer 2" opacity="0.5">
<path id="Vector" d="M6 6.375C5.55499 6.375 5.11998 6.24304 4.74997 5.99581C4.37996 5.74857 4.09157 5.39717 3.92127 4.98604C3.75097 4.57491 3.70642 4.12251 3.79323 3.68605C3.88005 3.24959 4.09434 2.84868 4.40901 2.53401C4.72368 2.21934 5.12459 2.00505 5.56105 1.91823C5.99751 1.83142 6.4499 1.87597 6.86104 2.04627C7.27217 2.21657 7.62357 2.50496 7.87081 2.87497C8.11804 3.24498 8.25 3.67999 8.25 4.125C8.25 4.72174 8.01295 5.29403 7.59099 5.71599C7.16903 6.13795 6.59674 6.375 6 6.375ZM6 2.625C5.70333 2.625 5.41332 2.71297 5.16665 2.8778C4.91997 3.04262 4.72771 3.27689 4.61418 3.55098C4.50065 3.82506 4.47095 4.12667 4.52882 4.41764C4.5867 4.70861 4.72956 4.97588 4.93934 5.18566C5.14912 5.39544 5.41639 5.5383 5.70737 5.59618C5.99834 5.65406 6.29994 5.62435 6.57403 5.51082C6.84812 5.39729 7.08238 5.20503 7.24721 4.95836C7.41203 4.71168 7.5 4.42167 7.5 4.125C7.5 3.72718 7.34197 3.34565 7.06066 3.06434C6.77936 2.78304 6.39783 2.625 6 2.625Z" fill="#B3B3B3"/>
<path id="Vector_2" d="M6.00001 11.6249C5.16842 11.6244 4.3473 11.4395 3.59577 11.0835C2.84423 10.7275 2.18098 10.2093 1.65376 9.5662L1.45876 9.3262L1.65376 9.08995C2.18142 8.44769 2.84487 7.93036 3.59639 7.57518C4.3479 7.21999 5.16879 7.03577 6.00001 7.03577C6.83123 7.03577 7.65212 7.21999 8.40363 7.57518C9.15514 7.93036 9.81859 8.44769 10.3463 9.08995L10.5413 9.3262L10.3463 9.5662C9.81903 10.2093 9.15578 10.7275 8.40424 11.0835C7.65271 11.4395 6.83159 11.6244 6.00001 11.6249ZM2.44126 9.32995C2.89734 9.81821 3.44893 10.2075 4.06177 10.4737C4.67461 10.7398 5.33562 10.8772 6.00376 10.8772C6.6719 10.8772 7.3329 10.7398 7.94574 10.4737C8.55858 10.2075 9.11017 9.81821 9.56626 9.32995C9.11017 8.84169 8.55858 8.4524 7.94574 8.18624C7.3329 7.92009 6.6719 7.78274 6.00376 7.78274C5.33562 7.78274 4.67461 7.92009 4.06177 8.18624C3.44893 8.4524 2.89734 8.84169 2.44126 9.32995Z" fill="#B3B3B3"/>
<path id="Vector_3" d="M6 11.625C4.72228 11.6259 3.48234 11.1917 2.48426 10.3939C1.48618 9.59617 0.789434 8.48239 0.508702 7.23589C0.22797 5.98939 0.379979 4.68446 0.939711 3.53586C1.49944 2.38726 2.43354 1.46345 3.58827 0.91648C4.74299 0.369505 6.04953 0.231959 7.29284 0.526481C8.53616 0.821002 9.64216 1.53004 10.4288 2.5369C11.2154 3.54375 11.6359 4.78843 11.6209 6.06606C11.6059 7.34369 11.1563 8.57815 10.3463 9.56625C9.81903 10.2093 9.15577 10.7275 8.40424 11.0835C7.6527 11.4395 6.83159 11.6244 6 11.625ZM6 1.125C5.03582 1.125 4.09329 1.41092 3.2916 1.94659C2.48991 2.48226 1.86507 3.24363 1.49609 4.13442C1.12711 5.02521 1.03057 6.00541 1.21867 6.95107C1.40678 7.89673 1.87108 8.76537 2.55286 9.44715C3.23464 10.1289 4.10328 10.5932 5.04894 10.7813C5.99459 10.9694 6.97479 10.8729 7.86558 10.5039C8.75637 10.1349 9.51774 9.5101 10.0534 8.70841C10.5891 7.90672 10.875 6.96419 10.875 6C10.875 4.70707 10.3614 3.4671 9.44715 2.55286C8.53291 1.63862 7.29293 1.125 6 1.125Z" fill="#B3B3B3"/>
<path id="Vector_4" d="M1.9425 9.33006C1.9425 9.33006 5.71875 13.5488 9.5625 9.75006L10.0575 9.33006C10.0575 9.33006 6.8475 6.00006 3.58875 7.99881L1.9425 9.33006Z" fill="#B3B3B3"/>
<path id="Vector_5" d="M6 6C7.03553 6 7.875 5.16053 7.875 4.125C7.875 3.08947 7.03553 2.25 6 2.25C4.96447 2.25 4.125 3.08947 4.125 4.125C4.125 5.16053 4.96447 6 6 6Z" fill="#B3B3B3"/>
</g>
</g>
<defs>
<clipPath id="clip0_1_188">
<rect width="12" height="12" fill="white"/>
</clipPath>
</defs>
</svg>
