<svg width="120" height="145" viewBox="0 0 120 145" fill="none" xmlns="http://www.w3.org/2000/svg">
<g id="Logo1" clip-path="url(#clip0_1_178)">
<path id="Vector" d="M0 79.2399L62.9183 37.6936C64.8461 36.8382 73.6278 38.7897 75.9572 44.0293L60.9719 59.0223H120L0.21419 145L60.9719 79.1063L0 79.2399Z" fill="#7053FF"/>
<path id="Vector_2" d="M85.1941 22.9904L120 0L92.3695 27.6152C89.9063 24.6425 86.5596 23.3201 85.1941 22.9904Z" fill="#7053FF"/>
<path id="Vector_3" d="M24.7925 58.9731V20.2638H65.4351C79.0003 20.1301 103.4 26.84 96.4659 56.38H78.2062C84.3641 39.5646 71.5486 35.6085 63.5609 35.1808H42.249V47.6115L24.7925 58.9731Z" fill="white"/>
<path id="Vector_4" d="M42.249 81.8031H24.7925V114.016L42.249 95.5439V81.8031Z" fill="white"/>
<path id="Vector_5" d="M70.0402 124.683H34.0294C34.0294 124.683 47.3628 114.828 54.1633 109.9H66.8273C73.6905 109.819 86.4739 105.521 82.7042 88.9676L96.8139 78.9427C111.657 111.621 85.1497 123.052 70.0402 124.683Z" fill="white"/>
</g>
<defs>
<clipPath id="clip0_1_178">
<rect width="120" height="145" fill="white"/>
</clipPath>
</defs>
</svg>
