<svg width="47" height="56" viewBox="0 0 47 56" fill="none" xmlns="http://www.w3.org/2000/svg">
<rect width="47" height="56" fill="#1E1E1E"/>
<g id="Dashboard Login" clip-path="url(#clip0_0_1)" filter="url(#filter0_d_0_1)">
<rect width="1440" height="1024" transform="translate(-48 -12)" fill="black"/>
<path id="Rectangle 869552931" d="M-48 -12H1392V56C1392 62.6274 1386.63 68 1380 68H-36C-42.6274 68 -48 62.6274 -48 56V-12Z" fill="url(#paint0_linear_0_1)"/>
<g id="Logo1" clip-path="url(#clip1_0_1)">
<path id="Vector" d="M0 30.603L24.643 14.5575C25.398 14.2272 28.8376 14.9808 29.7499 17.0044L23.8807 22.7948H47L0.0838911 56L23.8807 30.5514L0 30.603Z" fill="#7053FF"/>
<path id="Vector_2" d="M33.3677 8.87906L47 0L36.178 10.6652C35.2133 9.51711 33.9025 9.0064 33.3677 8.87906Z" fill="#7053FF"/>
<path id="Vector_3" d="M9.71039 22.7758V7.82601H25.6287C30.9418 7.77438 40.4984 10.3658 37.7825 21.7743H30.6307C33.0426 15.2801 28.0232 13.7523 24.8947 13.5871H16.5475V18.3879L9.71039 22.7758Z" fill="white"/>
<path id="Vector_4" d="M16.5475 31.5929H9.71039V44.0339L16.5475 36.8997V31.5929Z" fill="white"/>
<path id="Vector_5" d="M27.4324 48.1534H13.3282C13.3282 48.1534 18.5504 44.3472 21.214 42.444H26.174C28.8621 42.413 33.8689 40.7528 32.3924 34.3599L37.9188 30.4882C43.7324 43.1089 33.3503 47.5236 27.4324 48.1534Z" fill="white"/>
</g>
</g>
<defs>
<filter id="filter0_d_0_1" x="-52" y="-12" width="1448" height="1032" filterUnits="userSpaceOnUse" color-interpolation-filters="sRGB">
<feFlood flood-opacity="0" result="BackgroundImageFix"/>
<feColorMatrix in="SourceAlpha" type="matrix" values="0 0 0 0 0 0 0 0 0 0 0 0 0 0 0 0 0 0 127 0" result="hardAlpha"/>
<feOffset dy="4"/>
<feGaussianBlur stdDeviation="2"/>
<feComposite in2="hardAlpha" operator="out"/>
<feColorMatrix type="matrix" values="0 0 0 0 0 0 0 0 0 0 0 0 0 0 0 0 0 0 0.25 0"/>
<feBlend mode="normal" in2="BackgroundImageFix" result="effect1_dropShadow_0_1"/>
<feBlend mode="normal" in="SourceGraphic" in2="effect1_dropShadow_0_1" result="shape"/>
</filter>
<linearGradient id="paint0_linear_0_1" x1="-48" y1="-9.47368" x2="-38.8467" y2="150.084" gradientUnits="userSpaceOnUse">
<stop stop-color="#242424"/>
<stop offset="1" stop-color="#121212"/>
</linearGradient>
<clipPath id="clip0_0_1">
<rect width="1440" height="1024" fill="white" transform="translate(-48 -12)"/>
</clipPath>
<clipPath id="clip1_0_1">
<rect width="47" height="56" fill="white"/>
</clipPath>
</defs>
</svg>
